<?xml version="1.0" standalone="no"?>
<!DOCTYPE svg PUBLIC "-//W3C//DTD SVG 20010904//EN"
 "http://www.w3.org/TR/2001/REC-SVG-20010904/DTD/svg10.dtd">
<svg version="1.0" xmlns="http://www.w3.org/2000/svg"
 width="229.000000pt" height="221.000000pt" viewBox="0 0 229.000000 221.000000"
 preserveAspectRatio="xMidYMid meet">
<metadata>
Created by potrace 1.15, written by Peter Selinger 2001-2017
</metadata>
<g transform="translate(0.000000,221.000000) scale(0.100000,-0.100000)"
fill="#ffffff" stroke="none">
<path d="M0 2136 l0 -76 170 0 170 0 0 -955 0 -955 -170 0 -170 0 0 -75 0 -75
643 0 c788 1 1013 9 1151 44 138 36 236 87 322 168 101 96 153 202 169 348 23
200 -103 400 -315 503 -100 49 -223 87 -277 87 -55 0 -37 16 45 39 127 37 254
103 317 167 97 99 148 248 126 369 -43 232 -228 389 -537 455 -94 20 -135 21
-871 27 l-773 6 0 -77z m1502 -101 c72 -25 141 -93 185 -182 33 -67 38 -86 41
-168 9 -194 -73 -342 -235 -423 -88 -45 -149 -52 -450 -52 l-273 0 0 427 0
426 343 -6 c279 -5 351 -9 389 -22z m-64 -945 c241 -27 371 -196 372 -482 0
-155 -43 -264 -140 -351 -101 -91 -190 -107 -617 -107 l-283 0 0 475 0 475
293 0 c160 0 330 -4 375 -10z"/>
</g>
</svg>
